<svg id="visual" viewBox="0 0 675 900" width="675" height="900" xmlns="http://www.w3.org/2000/svg" xmlns:xlink="http://www.w3.org/1999/xlink" version="1.1"><path d="M0 232L16 243.8C32 255.7 64 279.3 96.2 278.8C128.3 278.3 160.7 253.7 192.8 259.8C225 266 257 303 289.2 322.8C321.3 342.7 353.7 345.3 385.8 340.8C418 336.3 450 324.7 482.2 314.5C514.3 304.3 546.7 295.7 578.8 302C611 308.3 643 329.7 659 340.3L675 351L675 0L659 0C643 0 611 0 578.8 0C546.7 0 514.3 0 482.2 0C450 0 418 0 385.8 0C353.7 0 321.3 0 289.2 0C257 0 225 0 192.8 0C160.7 0 128.3 0 96.2 0C64 0 32 0 16 0L0 0Z" fill="#cf4327"></path><path d="M0 269L16 263.5C32 258 64 247 96.2 249.7C128.3 252.3 160.7 268.7 192.8 272.3C225 276 257 267 289.2 250.5C321.3 234 353.7 210 385.8 214C418 218 450 250 482.2 263.2C514.3 276.3 546.7 270.7 578.8 258.7C611 246.7 643 228.3 659 219.2L675 210L675 0L659 0C643 0 611 0 578.8 0C546.7 0 514.3 0 482.2 0C450 0 418 0 385.8 0C353.7 0 321.3 0 289.2 0C257 0 225 0 192.8 0C160.7 0 128.3 0 96.2 0C64 0 32 0 16 0L0 0Z" fill="#e4755a"></path><path d="M0 190L16 192.7C32 195.3 64 200.7 96.2 204C128.3 207.3 160.7 208.7 192.8 203.8C225 199 257 188 289.2 183.5C321.3 179 353.7 181 385.8 187.5C418 194 450 205 482.2 203.7C514.3 202.3 546.7 188.7 578.8 181.8C611 175 643 175 659 175L675 175L675 0L659 0C643 0 611 0 578.8 0C546.7 0 514.3 0 482.2 0C450 0 418 0 385.8 0C353.7 0 321.3 0 289.2 0C257 0 225 0 192.8 0C160.7 0 128.3 0 96.2 0C64 0 32 0 16 0L0 0Z" fill="#f3a38e"></path><path d="M0 136L16 128C32 120 64 104 96.2 102.5C128.3 101 160.7 114 192.8 127.3C225 140.7 257 154.3 289.2 147.2C321.3 140 353.7 112 385.8 112.5C418 113 450 142 482.2 143C514.3 144 546.7 117 578.8 105.2C611 93.3 643 96.7 659 98.3L675 100L675 0L659 0C643 0 611 0 578.8 0C546.7 0 514.3 0 482.2 0C450 0 418 0 385.8 0C353.7 0 321.3 0 289.2 0C257 0 225 0 192.8 0C160.7 0 128.3 0 96.2 0C64 0 32 0 16 0L0 0Z" fill="#fcd1c5"></path><path d="M0 63L16 66.7C32 70.3 64 77.7 96.2 83.3C128.3 89 160.7 93 192.8 90.5C225 88 257 79 289.2 74.3C321.3 69.7 353.7 69.3 385.8 73.3C418 77.3 450 85.7 482.2 82C514.3 78.3 546.7 62.7 578.8 63.7C611 64.7 643 82.3 659 91.2L675 100L675 0L659 0C643 0 611 0 578.8 0C546.7 0 514.3 0 482.2 0C450 0 418 0 385.8 0C353.7 0 321.3 0 289.2 0C257 0 225 0 192.8 0C160.7 0 128.3 0 96.2 0C64 0 32 0 16 0L0 0Z" fill="#ffffff"></path></svg>