<svg id="visual" viewBox="0 0 675 900" width="675" height="900" xmlns="http://www.w3.org/2000/svg" xmlns:xlink="http://www.w3.org/1999/xlink" version="1.1"><path d="M0 522L16 511.8C32 501.7 64 481.3 96.2 472.2C128.3 463 160.7 465 192.8 483.8C225 502.7 257 538.3 289.2 550.8C321.3 563.3 353.7 552.7 385.8 540C418 527.3 450 512.7 482.2 497.2C514.3 481.7 546.7 465.3 578.8 465.7C611 466 643 483 659 491.5L675 500L675 901L659 901C643 901 611 901 578.8 901C546.7 901 514.3 901 482.2 901C450 901 418 901 385.8 901C353.7 901 321.3 901 289.2 901C257 901 225 901 192.8 901C160.7 901 128.3 901 96.2 901C64 901 32 901 16 901L0 901Z" fill="#cf4327"></path><path d="M0 605L16 595.2C32 585.3 64 565.7 96.2 567.8C128.3 570 160.7 594 192.8 610.5C225 627 257 636 289.2 621.3C321.3 606.7 353.7 568.3 385.8 564.2C418 560 450 590 482.2 592.3C514.3 594.7 546.7 569.3 578.8 563.7C611 558 643 572 659 579L675 586L675 901L659 901C643 901 611 901 578.8 901C546.7 901 514.3 901 482.2 901C450 901 418 901 385.8 901C353.7 901 321.3 901 289.2 901C257 901 225 901 192.8 901C160.7 901 128.3 901 96.2 901C64 901 32 901 16 901L0 901Z" fill="#e4755a"></path><path d="M0 705L16 710C32 715 64 725 96.2 710C128.3 695 160.7 655 192.8 649C225 643 257 671 289.2 681.2C321.3 691.3 353.7 683.7 385.8 687.7C418 691.7 450 707.3 482.2 696.8C514.3 686.3 546.7 649.7 578.8 636.8C611 624 643 635 659 640.5L675 646L675 901L659 901C643 901 611 901 578.8 901C546.7 901 514.3 901 482.2 901C450 901 418 901 385.8 901C353.7 901 321.3 901 289.2 901C257 901 225 901 192.8 901C160.7 901 128.3 901 96.2 901C64 901 32 901 16 901L0 901Z" fill="#f3a38e"></path><path d="M0 741L16 743.8C32 746.7 64 752.3 96.2 746C128.3 739.7 160.7 721.3 192.8 715C225 708.7 257 714.3 289.2 713.7C321.3 713 353.7 706 385.8 716C418 726 450 753 482.2 753C514.3 753 546.7 726 578.8 716.2C611 706.3 643 713.7 659 717.3L675 721L675 901L659 901C643 901 611 901 578.8 901C546.7 901 514.3 901 482.2 901C450 901 418 901 385.8 901C353.7 901 321.3 901 289.2 901C257 901 225 901 192.8 901C160.7 901 128.3 901 96.2 901C64 901 32 901 16 901L0 901Z" fill="#fcd1c5"></path><path d="M0 765L16 766.3C32 767.7 64 770.3 96.2 772.7C128.3 775 160.7 777 192.8 785.2C225 793.3 257 807.7 289.2 806.7C321.3 805.7 353.7 789.3 385.8 791.5C418 793.7 450 814.3 482.2 823.3C514.3 832.3 546.7 829.7 578.8 829.5C611 829.3 643 831.7 659 832.8L675 834L675 901L659 901C643 901 611 901 578.8 901C546.7 901 514.3 901 482.2 901C450 901 418 901 385.8 901C353.7 901 321.3 901 289.2 901C257 901 225 901 192.8 901C160.7 901 128.3 901 96.2 901C64 901 32 901 16 901L0 901Z" fill="#ffffff"></path></svg>