<svg id="visual" viewBox="0 0 900 600" width="900" height="600" xmlns="http://www.w3.org/2000/svg" xmlns:xlink="http://www.w3.org/1999/xlink" version="1.1"><path d="M0 437L16.7 435.5C33.3 434 66.7 431 100 446.5C133.3 462 166.7 496 200 499.8C233.3 503.7 266.7 477.3 300 473C333.3 468.7 366.7 486.3 400 492.2C433.3 498 466.7 492 500 494.8C533.3 497.7 566.7 509.3 600 499.2C633.3 489 666.7 457 700 446C733.3 435 766.7 445 800 451.7C833.3 458.3 866.7 461.7 883.3 463.3L900 465L900 601L883.3 601C866.7 601 833.3 601 800 601C766.7 601 733.3 601 700 601C666.7 601 633.3 601 600 601C566.7 601 533.3 601 500 601C466.7 601 433.3 601 400 601C366.7 601 333.3 601 300 601C266.7 601 233.3 601 200 601C166.7 601 133.3 601 100 601C66.7 601 33.3 601 16.7 601L0 601Z" fill="#fff" stroke-linecap="round" stroke-linejoin="miter"></path></svg>