<svg id="visual" viewBox="0 0 900 600" width="900" height="600" xmlns="http://www.w3.org/2000/svg" xmlns:xlink="http://www.w3.org/1999/xlink" version="1.1"><rect x="0" y="0" width="900" height="600" fill="#001220"></rect><defs><linearGradient id="grad1_0" x1="33.3%" y1="100%" x2="100%" y2="0%"><stop offset="20%" stop-color="#001220" stop-opacity="1"></stop><stop offset="80%" stop-color="#001220" stop-opacity="1"></stop></linearGradient></defs><defs><linearGradient id="grad2_0" x1="0%" y1="100%" x2="66.7%" y2="0%"><stop offset="20%" stop-color="#001220" stop-opacity="1"></stop><stop offset="80%" stop-color="#001220" stop-opacity="1"></stop></linearGradient></defs><g transform="translate(900, 600)"><path d="M-405.6 0C-379.6 -61.6 -353.6 -123.3 -323 -186.5C-292.5 -249.7 -257.4 -314.5 -202.8 -351.3C-148.2 -388.1 -74.1 -396.8 0 -405.6L0 0Z" fill="#CF4327"></path></g><g transform="translate(0, 0)"><path d="M405.6 0C372.7 57.6 339.7 115.3 310 179C280.4 242.7 253.9 312.5 202.8 351.3C151.7 390.1 75.8 397.8 0 405.6L0 0Z" fill="#CF4327"></path></g></svg>